<?xml version="1.0" encoding="utf-8"?>
<!-- Generator: Adobe Illustrator 27.6.1, SVG Export Plug-In . SVG Version: 6.00 Build 0)  -->
<svg version="1.1" id="Layer_1" xmlns="http://www.w3.org/2000/svg" xmlns:xlink="http://www.w3.org/1999/xlink" x="0px" y="0px"
	 viewBox="0 0 139 37" style="enable-background:new 0 0 139 37;" xml:space="preserve">
<style type="text/css">
	.st0{fill:#06182C;}
	.st1{fill:#0052FF;}
</style>
<path class="st0" d="M56.8,27h5.1l-8.1-13.5c-0.4-0.4-0.8-0.6-1.3-0.7c-0.5-0.1-0.9-0.2-1.2-0.2c-0.4,0-0.8,0.1-1.2,0.2
	c-0.5,0.1-0.9,0.4-1.3,0.7L40.7,27h5.1l1.1-1.9h8.6L56.8,27z M51.3,17.8l1.9,3.2h-3.8L51.3,17.8z M77.9,17.7H67.6v-0.9h12.8v-4.2
	H63.3V27h17.1v-4.2H67.6v-0.9h10.3V17.7z M86.2,19v8h-4.3V14.2c0-0.1,0-0.3,0.1-0.5c0.1-0.2,0.2-0.4,0.4-0.5
	c0.1-0.2,0.3-0.3,0.4-0.4c0.1-0.1,0.3-0.2,0.4-0.2h1.5c0.3,0,0.8,0.3,1.6,0.9l8.9,7.1v-8h4.3v12.8c0,0.1-0.1,0.3-0.2,0.5
	c-0.1,0.2-0.2,0.4-0.3,0.5c-0.1,0.2-0.3,0.3-0.4,0.4c-0.1,0.1-0.2,0.2-0.3,0.2h-1.5c-0.1,0-0.4-0.1-0.6-0.2
	c-0.2-0.1-0.6-0.4-0.9-0.7L86.2,19z M115.7,17.7h-10.3v-0.9h12.8v-4.2h-17.1V27h4.3v-5.1h10.3V17.7z M126.3,16.8h-6.5v-4.2h17.4v4.2
	h-6.5V27h-4.3V16.8z"/>
<path class="st1" d="M5.8,24.4v6.9l-3-1.9l0,0L0,27.7v-7.8L5.8,24.4z"/>
<path class="st1" d="M22,22.2c0,0.4-0.1,5.8-0.1,10.7l-5.3,3.3v-17L22,22.2z"/>
<path class="st1" d="M30.2,8v8L22,22.2c0,0,0,0,0,0l-5.4-3V0L30.2,8z"/>
<path class="st1" d="M8.5,22.2c0,0.4,0.1,5.8,0.1,10.7l5.3,3.3v-17L8.5,22.2z"/>
<path class="st1" d="M0.3,8v8l8.2,6.2c0,0,0,0,0,0l5.4-3V0L0.3,8z"/>
<path class="st1" d="M30.2,19.9v7.8L29.7,28l-0.1,0.1l-5.1,3.2v-6.9L30.2,19.9z"/>
</svg>
